<svg width="432" height="128" viewBox="0 0 432 128" fill="none" xmlns="http://www.w3.org/2000/svg">
<path d="M109.526 102H96.958V57C96.958 56.1211 96.7822 55.3008 96.4307 54.5391C96.1084 53.7773 95.6543 53.1182 95.0684 52.5615C94.5117 51.9756 93.8525 51.5215 93.0908 51.1992C92.3291 50.877 91.5088 50.7158 90.6299 50.7158C89.751 50.7158 88.9307 50.877 88.1689 51.1992C87.4072 51.5215 86.7334 51.9756 86.1475 52.5615C85.5908 53.1182 85.1514 53.7773 84.8291 54.5391C84.5068 55.3008 84.3457 56.1211 84.3457 57V102H71.7334V57C71.7334 56.1211 71.5723 55.3008 71.25 54.5391C70.9277 53.7773 70.4736 53.1182 69.8877 52.5615C69.3311 51.9756 68.6719 51.5215 67.9102 51.1992C67.1484 50.877 66.3281 50.7158 65.4492 50.7158C64.5703 50.7158 63.75 50.877 62.9883 51.1992C62.2266 51.5215 61.5527 51.9756 60.9668 52.5615C60.4102 53.1182 59.9707 53.7773 59.6484 54.5391C59.3262 55.3008 59.165 56.1211 59.165 57V102H46.5527V57C46.5527 54.3926 47.0361 51.9463 48.0029 49.6611C48.999 47.3467 50.3467 45.3398 52.0459 43.6406C53.7744 41.9121 55.7812 40.5645 58.0664 39.5977C60.3809 38.6016 62.8418 38.1035 65.4492 38.1035C67.793 38.1035 70.0488 38.5283 72.2168 39.3779C74.3848 40.1982 76.333 41.3994 78.0615 42.9814C79.79 41.3994 81.7236 40.1982 83.8623 39.3779C86.0303 38.5283 88.2861 38.1035 90.6299 38.1035C93.2373 38.1035 95.6836 38.6016 97.9688 39.5977C100.283 40.5645 102.29 41.9121 103.989 43.6406C105.718 45.3398 107.065 47.3467 108.032 49.6611C109.028 51.9463 109.526 54.3926 109.526 57V102ZM137.739 90.4863C138.208 90.6328 138.677 90.7354 139.146 90.7939C139.614 90.8232 140.083 90.8379 140.552 90.8379C141.724 90.8379 142.852 90.6768 143.936 90.3545C145.02 90.0322 146.03 89.5781 146.968 88.9922C147.935 88.377 148.784 87.6445 149.517 86.7949C150.278 85.916 150.894 84.9492 151.362 83.8945L160.151 92.7275C159.038 94.3096 157.749 95.7305 156.284 96.9902C154.849 98.25 153.281 99.3193 151.582 100.198C149.912 101.077 148.14 101.736 146.265 102.176C144.419 102.645 142.515 102.879 140.552 102.879C137.241 102.879 134.121 102.264 131.191 101.033C128.291 99.8027 125.742 98.0889 123.545 95.8916C121.377 93.6943 119.663 91.0869 118.403 88.0693C117.144 85.0225 116.514 81.6826 116.514 78.0498C116.514 74.3291 117.144 70.9307 118.403 67.8545C119.663 64.7783 121.377 62.1562 123.545 59.9883C125.742 57.8203 128.291 56.1357 131.191 54.9346C134.121 53.7334 137.241 53.1328 140.552 53.1328C142.515 53.1328 144.434 53.3672 146.309 53.8359C148.184 54.3047 149.956 54.9785 151.626 55.8574C153.325 56.7363 154.907 57.8203 156.372 59.1094C157.837 60.3691 159.126 61.79 160.239 63.3721L137.739 90.4863ZM143.892 65.7451C143.335 65.54 142.778 65.4082 142.222 65.3496C141.694 65.291 141.138 65.2617 140.552 65.2617C138.911 65.2617 137.358 65.5693 135.894 66.1846C134.458 66.7705 133.198 67.6201 132.114 68.7334C131.06 69.8467 130.225 71.1943 129.609 72.7764C128.994 74.3291 128.687 76.0869 128.687 78.0498C128.687 78.4893 128.701 78.9873 128.73 79.5439C128.789 80.1006 128.862 80.6719 128.95 81.2578C129.067 81.8145 129.199 82.3564 129.346 82.8838C129.492 83.4111 129.683 83.8799 129.917 84.29L143.892 65.7451ZM200.889 96.5068C199.922 97.3857 198.882 98.2207 197.769 99.0117C196.685 99.7734 195.542 100.447 194.341 101.033C193.14 101.59 191.895 102.029 190.605 102.352C189.346 102.703 188.057 102.879 186.738 102.879C183.838 102.879 181.113 102.366 178.564 101.341C176.016 100.315 173.774 98.8652 171.841 96.9902C169.937 95.0859 168.428 92.7861 167.314 90.0908C166.23 87.3662 165.688 84.3193 165.688 80.9502V54.9346H177.642V80.9502C177.642 82.5322 177.876 83.9531 178.345 85.2129C178.843 86.4434 179.502 87.4834 180.322 88.333C181.143 89.1826 182.095 89.8271 183.179 90.2666C184.292 90.7061 185.479 90.9258 186.738 90.9258C187.969 90.9258 189.126 90.6475 190.21 90.0908C191.323 89.5049 192.29 88.7432 193.11 87.8057C193.931 86.8682 194.575 85.8135 195.044 84.6416C195.513 83.4404 195.747 82.21 195.747 80.9502V54.9346H207.744V102H204.844L200.889 96.5068ZM230.815 51.5947V76.8193H243.428C245.156 76.8193 246.782 76.4971 248.306 75.8525C249.829 75.1787 251.162 74.2705 252.305 73.1279C253.447 71.9854 254.341 70.6523 254.985 69.1289C255.659 67.5762 255.996 65.9355 255.996 64.207C255.996 62.4785 255.659 60.8525 254.985 59.3291C254.341 57.7764 253.447 56.4287 252.305 55.2861C251.162 54.1436 249.829 53.25 248.306 52.6055C246.782 51.9316 245.156 51.5947 243.428 51.5947H230.815ZM230.815 102H218.203V38.9824H243.428C245.742 38.9824 247.969 39.29 250.107 39.9053C252.246 40.4912 254.238 41.3408 256.084 42.4541C257.959 43.5381 259.658 44.8564 261.182 46.4092C262.734 47.9326 264.053 49.6318 265.137 51.5068C266.25 53.3818 267.1 55.3887 267.686 57.5273C268.301 59.666 268.608 61.8926 268.608 64.207C268.608 67.6641 267.949 70.9307 266.631 74.0068C265.312 77.0537 263.511 79.7197 261.226 82.0049C258.94 84.29 256.26 86.0918 253.184 87.4102C250.137 88.7285 246.885 89.3877 243.428 89.3877H230.815V102ZM286.758 102H274.761V54.9346H277.661L281.616 60.5156C283.55 58.7578 285.747 57.4102 288.208 56.4727C290.669 55.5059 293.218 55.0225 295.854 55.0225H306.445V66.9756H295.854C294.595 66.9756 293.408 67.21 292.295 67.6787C291.182 68.1475 290.215 68.792 289.395 69.6123C288.574 70.4326 287.93 71.3994 287.461 72.5127C286.992 73.626 286.758 74.8125 286.758 76.0723V102ZM356.631 78.0498C356.631 81.5654 356.001 84.8467 354.741 87.8936C353.481 90.9111 351.768 93.5332 349.6 95.7598C347.432 97.957 344.883 99.7002 341.953 100.989C339.053 102.249 335.933 102.879 332.593 102.879C329.282 102.879 326.162 102.249 323.232 100.989C320.332 99.7002 317.783 97.957 315.586 95.7598C313.418 93.5332 311.704 90.9111 310.444 87.8936C309.185 84.8467 308.555 81.5654 308.555 78.0498C308.555 74.4756 309.185 71.165 310.444 68.1182C311.704 65.0713 313.418 62.4492 315.586 60.252C317.783 58.0254 320.332 56.2822 323.232 55.0225C326.162 53.7627 329.282 53.1328 332.593 53.1328C335.933 53.1328 339.053 53.7334 341.953 54.9346C344.883 56.1064 347.432 57.791 349.6 59.9883C351.768 62.1562 353.481 64.7783 354.741 67.8545C356.001 70.9014 356.631 74.2998 356.631 78.0498ZM344.546 78.0498C344.546 76.1162 344.224 74.373 343.579 72.8203C342.964 71.2383 342.114 69.8906 341.03 68.7773C339.946 67.6348 338.672 66.7705 337.207 66.1846C335.771 65.5693 334.233 65.2617 332.593 65.2617C330.952 65.2617 329.399 65.5693 327.935 66.1846C326.499 66.7705 325.239 67.6348 324.155 68.7773C323.101 69.8906 322.266 71.2383 321.65 72.8203C321.035 74.373 320.728 76.1162 320.728 78.0498C320.728 79.8662 321.035 81.5508 321.65 83.1035C322.266 84.6562 323.101 86.0039 324.155 87.1465C325.239 88.2891 326.499 89.1973 327.935 89.8711C329.399 90.5156 330.952 90.8379 332.593 90.8379C334.233 90.8379 335.771 90.5303 337.207 89.915C338.672 89.2998 339.946 88.4355 341.03 87.3223C342.114 86.209 342.964 84.8613 343.579 83.2793C344.224 81.6973 344.546 79.9541 344.546 78.0498ZM377.988 102H365.991V66.8877H360.146V54.9346H365.991V52.6934C365.991 49.793 366.533 47.0684 367.617 44.5195C368.73 41.9707 370.239 39.7588 372.144 37.8838C374.077 35.9795 376.318 34.4854 378.867 33.4014C381.416 32.2881 384.141 31.7314 387.041 31.7314H396.05V43.6846H387.041C385.752 43.6846 384.551 43.9189 383.438 44.3877C382.354 44.8271 381.401 45.457 380.581 46.2773C379.79 47.0684 379.16 48.0205 378.691 49.1338C378.223 50.2178 377.988 51.4043 377.988 52.6934V54.9346H392.71V66.8877H377.988V102Z" fill="white"/>
</svg>
