<svg width="432" height="128" viewBox="0 0 432 128" fill="none" xmlns="http://www.w3.org/2000/svg">
<path d="M33.3382 98C32.0182 98 30.9082 97.55 30.0082 96.65C29.1082 95.75 28.6582 94.64 28.6582 93.32V32.39C28.6582 31.01 29.1082 29.9 30.0082 29.06C30.9082 28.16 32.0182 27.71 33.3382 27.71C35.1382 27.71 36.5182 28.55 37.4782 30.23L64.2082 83.78L90.2182 30.23C91.1782 28.55 92.5582 27.71 94.3582 27.71C95.6782 27.71 96.7882 28.16 97.6882 29.06C98.5882 29.9 99.0382 31.01 99.0382 32.39V93.32C99.0382 94.64 98.5582 95.75 97.5982 96.65C96.6982 97.55 95.6182 98 94.3582 98C93.0382 98 91.9282 97.55 91.0282 96.65C90.1282 95.75 89.6782 94.64 89.6782 93.32V48.59L67.8982 92.96C66.8782 94.52 65.5282 95.3 63.8482 95.3C61.8682 95.3 60.4282 94.37 59.5282 92.51L38.0182 49.4V93.32C38.0182 94.64 37.5682 95.75 36.6682 96.65C35.7682 97.55 34.6582 98 33.3382 98ZM139.306 98.36C134.326 98.36 129.886 97.31 125.986 95.21C122.146 93.05 119.116 90.11 116.896 86.39C114.736 82.61 113.656 78.29 113.656 73.43C113.656 68.51 114.676 64.19 116.716 60.47C118.816 56.69 121.696 53.75 125.356 51.65C129.016 49.49 133.216 48.41 137.956 48.41C142.636 48.41 146.656 49.46 150.016 51.56C153.376 53.6 155.926 56.45 157.666 60.11C159.466 63.71 160.366 67.88 160.366 72.62C160.366 73.76 159.976 74.72 159.196 75.5C158.416 76.22 157.426 76.58 156.226 76.58H122.026C122.686 80.72 124.576 84.11 127.696 86.75C130.876 89.33 134.746 90.62 139.306 90.62C141.166 90.62 143.056 90.29 144.976 89.63C146.956 88.91 148.546 88.1 149.746 87.2C150.646 86.54 151.606 86.21 152.626 86.21C153.706 86.15 154.636 86.45 155.416 87.11C156.436 88.01 156.976 89 157.036 90.08C157.096 91.16 156.616 92.09 155.596 92.87C153.556 94.49 151.006 95.81 147.946 96.83C144.946 97.85 142.066 98.36 139.306 98.36ZM137.956 56.15C133.516 56.15 129.946 57.38 127.246 59.84C124.546 62.3 122.836 65.48 122.116 69.38H152.086C151.546 65.54 150.076 62.39 147.676 59.93C145.276 57.41 142.036 56.15 137.956 56.15ZM192.775 98.45C188.635 98.45 184.915 97.58 181.615 95.84C178.375 94.04 175.795 91.43 173.875 88.01C172.015 84.59 171.085 80.39 171.085 75.41V53.27C171.085 51.95 171.505 50.87 172.345 50.03C173.245 49.13 174.355 48.68 175.675 48.68C176.995 48.68 178.075 49.13 178.915 50.03C179.815 50.87 180.265 51.95 180.265 53.27V75.41C180.265 80.51 181.615 84.26 184.315 86.66C187.075 89 190.495 90.17 194.575 90.17C197.155 90.17 199.435 89.66 201.415 88.64C203.455 87.62 205.075 86.24 206.275 84.5C207.475 82.76 208.075 80.81 208.075 78.65V53.27C208.075 51.89 208.495 50.78 209.335 49.94C210.235 49.1 211.345 48.68 212.665 48.68C214.045 48.68 215.155 49.1 215.995 49.94C216.835 50.78 217.255 51.89 217.255 53.27V93.41C217.255 94.73 216.835 95.84 215.995 96.74C215.155 97.58 214.045 98 212.665 98C211.345 98 210.235 97.58 209.335 96.74C208.495 95.84 208.075 94.73 208.075 93.41V92.42C206.215 94.28 203.965 95.75 201.325 96.83C198.685 97.91 195.835 98.45 192.775 98.45ZM239.002 98C237.682 98 236.572 97.55 235.672 96.65C234.772 95.75 234.322 94.64 234.322 93.32V32.39C234.322 31.01 234.772 29.9 235.672 29.06C236.572 28.16 237.682 27.71 239.002 27.71H257.002C261.502 27.71 265.492 28.7 268.972 30.68C272.452 32.66 275.152 35.42 277.072 38.96C279.052 42.44 280.042 46.46 280.042 51.02C280.042 55.4 279.052 59.3 277.072 62.72C275.152 66.14 272.452 68.81 268.972 70.73C265.492 72.65 261.502 73.61 257.002 73.61H243.682V93.32C243.682 94.64 243.232 95.75 242.332 96.65C241.492 97.55 240.382 98 239.002 98ZM243.682 64.97H257.002C261.082 64.97 264.442 63.68 267.082 61.1C269.722 58.46 271.042 55.1 271.042 51.02C271.042 48.14 270.442 45.62 269.242 43.46C268.042 41.24 266.392 39.5 264.292 38.24C262.192 36.98 259.762 36.35 257.002 36.35H243.682V64.97ZM293.996 98C290.996 98 289.496 96.5 289.496 93.5V53.27C289.496 50.27 290.996 48.77 293.996 48.77C296.996 48.77 298.496 50.27 298.496 53.27V54.98C300.296 52.88 302.486 51.23 305.066 50.03C307.706 48.83 310.556 48.23 313.616 48.23C317.216 48.23 319.886 48.83 321.626 50.03C323.426 51.17 324.116 52.55 323.696 54.17C323.396 55.43 322.796 56.27 321.896 56.69C320.996 57.05 319.946 57.11 318.746 56.87C314.906 56.09 311.456 56.03 308.396 56.69C305.336 57.35 302.906 58.58 301.106 60.38C299.366 62.18 298.496 64.46 298.496 67.22V93.5C298.496 96.5 296.996 98 293.996 98ZM351.983 98.36C347.123 98.36 342.833 97.31 339.113 95.21C335.393 93.05 332.453 90.11 330.293 86.39C328.193 82.61 327.143 78.29 327.143 73.43C327.143 68.51 328.193 64.19 330.293 60.47C332.453 56.69 335.393 53.75 339.113 51.65C342.833 49.49 347.123 48.41 351.983 48.41C356.783 48.41 361.043 49.49 364.763 51.65C368.483 53.75 371.393 56.69 373.493 60.47C375.653 64.19 376.733 68.51 376.733 73.43C376.733 78.29 375.683 82.61 373.583 86.39C371.483 90.11 368.573 93.05 364.853 95.21C361.133 97.31 356.843 98.36 351.983 98.36ZM351.983 90.26C355.103 90.26 357.863 89.54 360.263 88.1C362.663 86.66 364.523 84.68 365.843 82.16C367.223 79.64 367.913 76.73 367.913 73.43C367.913 70.13 367.223 67.22 365.843 64.7C364.523 62.12 362.663 60.11 360.263 58.67C357.863 57.23 355.103 56.51 351.983 56.51C348.863 56.51 346.103 57.23 343.703 58.67C341.303 60.11 339.413 62.12 338.033 64.7C336.653 67.22 335.963 70.13 335.963 73.43C335.963 76.73 336.653 79.64 338.033 82.16C339.413 84.68 341.303 86.66 343.703 88.1C346.103 89.54 348.863 90.26 351.983 90.26ZM395.705 98C394.565 98 393.545 97.58 392.645 96.74C391.745 95.9 391.295 94.79 391.295 93.41V58.31H387.425C386.165 58.31 385.145 57.95 384.365 57.23C383.585 56.51 383.195 55.61 383.195 54.53C383.195 53.33 383.585 52.37 384.365 51.65C385.145 50.93 386.165 50.57 387.425 50.57H391.295V49.04C391.295 44.72 392.135 40.97 393.815 37.79C395.555 34.61 397.955 32.15 401.015 30.41C404.075 28.61 407.615 27.71 411.635 27.71C412.955 27.71 414.035 28.1 414.875 28.88C415.775 29.66 416.225 30.65 416.225 31.85C416.225 32.99 415.775 33.98 414.875 34.82C414.035 35.6 412.955 35.99 411.635 35.99C408.275 35.99 405.575 37.1 403.535 39.32C401.495 41.54 400.475 44.48 400.475 48.14V50.57H409.655C410.915 50.57 411.935 50.93 412.715 51.65C413.495 52.37 413.885 53.33 413.885 54.53C413.885 55.61 413.495 56.51 412.715 57.23C411.935 57.95 410.915 58.31 409.655 58.31H400.475V93.41C400.475 94.79 400.055 95.9 399.215 96.74C398.375 97.58 397.205 98 395.705 98Z" fill="white"/>
</svg>
